REM DIRINDEX 1\2\6,1\2\7,1\2\8,1\2\9,1\3\10,1\3\11,1\4\12,1\4\13,1\4\14,1\5\15,1\5\16,1\5\17
REM DIRNAME folder01,folder02,folder03,folder04,folder05,folder06,folder07,folder08,folder09,folder10,folder11,folder12,folder13,folder14,folder15,folder16,folder17
TITLE ""
FILE "1400_3_sec11_1084_1100.mp3" MP3
  TRACK 01 AUDIO
    TITLE "0:"
    INDEX 01 00:00:00
  TRACK 02 AUDIO
    TITLE "17:cjc029_6605"
    INDEX 01 00:00:15
  TRACK 03 AUDIO
    TITLE "0:"
    INDEX 01 00:01:38
  TRACK 04 AUDIO
    TITLE "16:cjc029_6606"
    INDEX 01 00:01:44
  TRACK 05 AUDIO
    TITLE "0:"
    INDEX 01 00:02:53
  TRACK 06 AUDIO
    TITLE "17:cjc029_6607"
    INDEX 01 00:03:37
  TRACK 07 AUDIO
    TITLE "0:"
    INDEX 01 00:04:60
  TRACK 08 AUDIO
    TITLE "16:cjc029_6608"
    INDEX 01 00:04:66
  TRACK 09 AUDIO
    TITLE "0:"
    INDEX 01 00:05:65
  TRACK 10 AUDIO
    TITLE "17:cjc029_6609"
    INDEX 01 00:06:51
  TRACK 11 AUDIO
    TITLE "0:"
    INDEX 01 00:08:17
  TRACK 12 AUDIO
    TITLE "16:cjc029_6610"
    INDEX 01 00:08:24
  TRACK 13 AUDIO
    TITLE "0:"
    INDEX 01 00:09:53
  TRACK 14 AUDIO
    TITLE "17:cjc029_6611"
    INDEX 01 00:10:41
  TRACK 15 AUDIO
    TITLE "0:"
    INDEX 01 00:11:74
  TRACK 16 AUDIO
    TITLE "16:cjc029_6612"
    INDEX 01 00:12:03
  TRACK 17 AUDIO
    TITLE "0:"
    INDEX 01 00:13:30
  TRACK 18 AUDIO
    TITLE "17:cjc029_6613"
    INDEX 01 00:14:09
  TRACK 19 AUDIO
    TITLE "0:"
    INDEX 01 00:15:28
  TRACK 20 AUDIO
    TITLE "16:cjc029_6614"
    INDEX 01 00:15:34
  TRACK 21 AUDIO
    TITLE "0:"
    INDEX 01 00:16:48
  TRACK 22 AUDIO
    TITLE "17:cjc029_6615"
    INDEX 01 00:17:31
  TRACK 23 AUDIO
    TITLE "0:"
    INDEX 01 00:18:48
  TRACK 24 AUDIO
    TITLE "16:cjc029_6616"
    INDEX 01 00:18:56
  TRACK 25 AUDIO
    TITLE "0:"
    INDEX 01 00:19:69
  TRACK 26 AUDIO
    TITLE "17:cjc029_6617"
    INDEX 01 00:20:53
  TRACK 27 AUDIO
    TITLE "0:"
    INDEX 01 00:22:17
  TRACK 28 AUDIO
    TITLE "16:cjc029_6618"
    INDEX 01 00:22:23
  TRACK 29 AUDIO
    TITLE "0:"
    INDEX 01 00:23:48
  TRACK 30 AUDIO
    TITLE "17:cjc029_6619"
    INDEX 01 00:24:33
  TRACK 31 AUDIO
    TITLE "0:"
    INDEX 01 00:25:54
  TRACK 32 AUDIO
    TITLE "16:cjc029_6620"
    INDEX 01 00:25:58
  TRACK 33 AUDIO
    TITLE "0:"
    INDEX 01 00:26:60
  TRACK 34 AUDIO
    TITLE "17:cjc029_6621"
    INDEX 01 00:27:43
  TRACK 35 AUDIO
    TITLE "0:"
    INDEX 01 00:29:68
  TRACK 36 AUDIO
    TITLE "16:cjc029_6622"
    INDEX 01 00:29:72
  TRACK 37 AUDIO
    TITLE "0:"
    INDEX 01 00:31:02
  TRACK 38 AUDIO
    TITLE "17:cjc029_6623"
    INDEX 01 00:31:61
  TRACK 39 AUDIO
    TITLE "0:"
    INDEX 01 00:32:56
  TRACK 40 AUDIO
    TITLE "16:cjc029_6624"
    INDEX 01 00:32:60
  TRACK 41 AUDIO
    TITLE "0:"
    INDEX 01 00:33:62
  TRACK 42 AUDIO
    TITLE "17:cjc029_6625"
    INDEX 01 00:34:45
  TRACK 43 AUDIO
    TITLE "0:"
    INDEX 01 00:36:15
  TRACK 44 AUDIO
    TITLE "16:cjc029_6626"
    INDEX 01 00:36:21
  TRACK 45 AUDIO
    TITLE "0:"
    INDEX 01 00:37:38
  TRACK 46 AUDIO
    TITLE "17:cjc029_6627"
    INDEX 01 00:38:22
  TRACK 47 AUDIO
    TITLE "0:"
    INDEX 01 00:40:38
  TRACK 48 AUDIO
    TITLE "16:cjc029_6628"
    INDEX 01 00:40:46
  TRACK 49 AUDIO
    TITLE "0:"
    INDEX 01 00:41:57
  TRACK 50 AUDIO
    TITLE "17:cjc029_6629"
    INDEX 01 00:42:39
  TRACK 51 AUDIO
    TITLE "0:"
    INDEX 01 00:43:68
  TRACK 52 AUDIO
    TITLE "16:cjc029_6630"
    INDEX 01 00:44:03
  TRACK 53 AUDIO
    TITLE "0:"
    INDEX 01 00:45:14
  TRACK 54 AUDIO
    TITLE "17:cjc029_6631"
    INDEX 01 00:46:00
  TRACK 55 AUDIO
    TITLE "0:"
    INDEX 01 00:46:74
  TRACK 56 AUDIO
    TITLE "16:cjc029_6632"
    INDEX 01 00:47:07
  TRACK 57 AUDIO
    TITLE "0:"
    INDEX 01 00:48:20
  TRACK 58 AUDIO
    TITLE "17:cjc029_6633"
    INDEX 01 00:49:06
  TRACK 59 AUDIO
    TITLE "0:"
    INDEX 01 00:50:27
  TRACK 60 AUDIO
    TITLE "16:cjc029_6634"
    INDEX 01 00:50:31
  TRACK 61 AUDIO
    TITLE "0:"
    INDEX 01 00:51:32
  TRACK 62 AUDIO
    TITLE "17:cjc029_6635"
    INDEX 01 00:52:20
  TRACK 63 AUDIO
    TITLE "0:"
    INDEX 01 00:54:68
  TRACK 64 AUDIO
    TITLE "16:cjc029_6636"
    INDEX 01 00:54:74
  TRACK 65 AUDIO
    TITLE "0:"
    INDEX 01 00:56:12
  TRACK 66 AUDIO
    TITLE "17:cjc029_6637"
    INDEX 01 00:56:71
  TRACK 67 AUDIO
    TITLE "0:"
    INDEX 01 00:58:66
  TRACK 68 AUDIO
    TITLE "16:cjc029_6638"
    INDEX 01 00:58:67
  TRACK 69 AUDIO
    TITLE "0:"
    INDEX 01 01:00:02
